<svg xmlns="http://www.w3.org/2000/svg" width="154.827" height="120.657" viewBox="0 0 154.827 120.657">
  <g id="noun_Whale_1567205" transform="translate(-10.725 -107.334)">
    <path id="Path_9" data-name="Path 9" d="M44.976,121.1a25.987,25.987,0,0,0-28.066-2.761l-6.185,3.184s9.261-2.922,16.646,2.909c13.514,11.843,24.581,10.285,36.46,4.171l6.46-3.325S55.086,129.679,44.976,121.1Z" transform="translate(0 87.369)" fill="#1295f1"/>
    <path id="Path_10" data-name="Path 10" d="M40.079,114.929c7.264,6.366,13.214,5.529,19.6,2.242l3.473-1.788s-8.174,2.364-13.608-2.246a13.969,13.969,0,0,0-15.087-1.485l-3.325,1.711S36.109,111.795,40.079,114.929Z" transform="translate(2.968 86.59)" fill="#1295f1"/>
    <path id="Path_11" data-name="Path 11" d="M134.937,117.674a16.038,16.038,0,0,0-17.322-1.7l-3.818,1.966s5.716-1.8,10.274,1.8c8.34,7.309,15.171,6.348,22.5,2.574l3.987-2.053S141.177,122.967,134.937,117.674Z" transform="translate(14.992 87.185)" fill="#1295f1"/>
    <path id="Path_12" data-name="Path 12" d="M96.519,119.5l.8-8.726a33.874,33.874,0,0,1,19.793-27.766,65.092,65.092,0,0,0,37.594-48.922h0a1.715,1.715,0,0,0-2.795-1.591,41.444,41.444,0,0,1-19.862,9.072l-19.965,3.975A45.586,45.586,0,0,0,86.92,59.976,45.586,45.586,0,0,0,61.754,45.543L41.732,41.557a41.369,41.369,0,0,1-19.8-9.061h0a1.715,1.715,0,0,0-2.795,1.591h0A65.092,65.092,0,0,0,56.726,83.011a33.852,33.852,0,0,1,19.793,27.766l.982,10.677A47.057,47.057,0,0,1,96.519,119.5Z" transform="translate(1.219 75.243)" fill="#1295f1"/>
    <path id="Path_16" data-name="Path 16" d="M113.028,121h0a43,43,0,0,0-46.443-4.569L56.35,121.7s15.325-4.835,27.546,4.815h0c22.363,19.6,40.678,17.02,60.332,6.9l10.689-5.5S129.757,135.2,113.028,121Z" transform="translate(6.636 86.818)" fill="#1295f1"/>
  </g>
</svg>
