<svg xmlns="http://www.w3.org/2000/svg" width="1203.802" height="938.126" viewBox="0 0 1203.802 938.126">
  <g id="noun_Whale_1567205" transform="translate(-10.725 -107.334)">
    <path id="Path_9" data-name="Path 9" d="M277.033,159.338A202.052,202.052,0,0,0,58.818,137.874L10.725,162.633s72.005-22.719,129.422,22.621c105.073,92.08,191.123,79.967,283.479,32.427l50.23-25.854S355.638,226.026,277.033,159.338Z" transform="translate(0 734.352)" fill="#1295f1"/>
    <path id="Path_10" data-name="Path 10" d="M100.7,147.63c56.482,49.5,102.74,42.99,152.382,17.429l27-13.9s-63.553,18.382-105.8-17.465a108.61,108.61,0,0,0-117.3-11.542L31.131,135.456C31.131,135.474,69.837,123.264,100.7,147.63Z" transform="translate(161.331 692.008)" fill="#1295f1"/>
    <path id="Path_11" data-name="Path 11" d="M278.159,141.275a124.7,124.7,0,0,0-134.677-13.252L113.8,143.306s44.441-14.018,79.878,13.965c64.845,56.829,117.96,49.357,174.95,20.012l31-15.96S326.67,182.43,278.159,141.275Z" transform="translate(814.898 724.334)" fill="#1295f1"/>
    <path id="Path_12" data-name="Path 12" d="M620.988,711.734l6.234-67.846a263.376,263.376,0,0,1,153.9-215.882,506.1,506.1,0,0,0,292.3-380.377v-.009c1.995-12.2-12.255-20.315-21.731-12.37a322.23,322.23,0,0,1-154.43,70.536l-155.232,30.9A354.437,354.437,0,0,0,546.356,248.906,354.438,354.438,0,0,0,350.69,136.69L195.013,105.7A321.648,321.648,0,0,1,41.027,35.25h0c-9.476-7.944-23.726.169-21.731,12.37v.009a506.1,506.1,0,0,0,292.3,380.377,263.2,263.2,0,0,1,153.9,215.882l7.632,83.013A365.876,365.876,0,0,1,620.988,711.734Z" transform="translate(66.275 75.243)" fill="#1295f1"/>
    <path id="Path_16" data-name="Path 16" d="M497.029,184.279h0a334.366,334.366,0,0,0-361.1-35.526L56.35,189.721S175.5,152.129,270.522,227.162h0C444.395,379.535,586.8,359.5,739.612,280.821l83.111-42.785S627.1,294.634,497.029,184.279Z" transform="translate(360.713 704.361)" fill="#1295f1"/>
  </g>
</svg>
