<svg xmlns="http://www.w3.org/2000/svg" width="130.766" height="101.907" viewBox="0 0 130.766 101.907">
  <g id="noun_Whale_1567205" transform="translate(-10.725 -107.334)">
    <path id="Path_9" data-name="Path 9" d="M39.653,120.225a21.948,21.948,0,0,0-23.7-2.332l-5.224,2.689s7.822-2.468,14.059,2.457c11.414,10,20.761,8.687,30.794,3.522l5.456-2.808S48.192,127.469,39.653,120.225Z" transform="translate(0 72.529)" fill="#1295f1"/>
    <path id="Path_10" data-name="Path 10" d="M38.689,114.179c6.136,5.377,11.16,4.67,16.553,1.893l2.933-1.51s-6.9,2-11.493-1.9a11.8,11.8,0,0,0-12.742-1.254l-2.808,1.445A8.865,8.865,0,0,1,38.689,114.179Z" transform="translate(-0.664 72.703)" fill="#1295f1"/>
    <path id="Path_11" data-name="Path 11" d="M131.652,117.133a13.546,13.546,0,0,0-14.63-1.44l-3.224,1.66s4.828-1.523,8.677,1.517c7.044,6.173,12.814,5.362,19,2.174l3.368-1.734S136.922,121.6,131.652,117.133Z" transform="translate(-3.356 72.57)" fill="#1295f1"/>
    <path id="Path_12" data-name="Path 12" d="M84.489,105.918l.677-7.37A28.61,28.61,0,0,1,101.883,75.1a54.976,54.976,0,0,0,31.751-41.319h0a1.449,1.449,0,0,0-2.361-1.344A35,35,0,0,1,114.5,40.1L97.636,43.453a38.5,38.5,0,0,0-21.255,12.19,38.5,38.5,0,0,0-21.255-12.19L38.216,40.086a34.94,34.94,0,0,1-16.727-7.652h0a1.449,1.449,0,0,0-2.361,1.344h0A54.976,54.976,0,0,0,50.88,75.1,28.591,28.591,0,0,1,67.6,98.548l.829,9.018A39.744,39.744,0,0,1,84.489,105.918Z" transform="translate(-0.273 75.243)" fill="#1295f1"/>
    <path id="Path_16" data-name="Path 16" d="M104.22,119.553h0a36.321,36.321,0,0,0-39.226-3.859l-8.644,4.45s12.943-4.084,23.265,4.067h0c18.887,16.552,34.357,14.375,50.956,5.829l9.028-4.648S118.349,131.54,104.22,119.553Z" transform="translate(-1.485 72.653)" fill="#1295f1"/>
  </g>
</svg>
